<svg width="82" height="30" viewBox="0 0 82 30" fill="none" xmlns="http://www.w3.org/2000/svg">
<path d="M1 1C3.22442 1 3.86969 5.0916 4.56909 8.27054C5.06262 10.5138 5.89896 15.0532 5.89896 15.0532C5.89896 15.0532 5.65037 12.8598 5.99568 11.9131C6.80943 9.68208 7.61803 11.8892 8.07513 13.0435C9.04295 15.4874 9.16213 17.1177 10.9041 18.1618C11.7317 18.6579 12.5142 20.8294 13.1045 20.3913C14.1219 19.6363 14.5145 19.8728 15.4741 20.6739C16.2769 21.3441 17.1016 21.4974 17.6503 22.5266C17.9238 23.0398 19.3517 25.942 19.3912 25.3527C19.6859 20.9506 21.2761 25.8715 22.0993 23.0918C22.395 22.0933 23.3083 21.6815 23.3083 20.6739C23.3083 18.0676 23.9457 19.8407 24.614 20.9565C25.2392 22.0004 27.5047 28.8949 27.8782 28.0217C28.406 26.7881 28.7347 27.4892 29.4016 28.3044C30.1266 29.1905 29.7128 27.1182 29.9335 26.6087C30.3391 25.6723 32.086 28.2819 32.5933 28.4928C32.7829 28.5716 33.2981 26.3579 33.4154 25.9179C33.6666 24.9755 34.1891 23.9333 34.1891 22.9348C34.1891 21.3855 34.8331 22.5894 35.2772 22.5894C35.521 22.5894 36.4915 17.3037 36.7763 16.7488C37.5712 15.2003 38.2306 20.5214 39.6295 20.9251C39.9495 21.0175 41.1236 22.3233 41.1287 22.3068C41.2701 21.8476 41.1233 20.4541 41.8299 20.4541C42.8263 20.4541 44.2162 22.6121 44.538 23.657C44.7627 24.3865 44.875 21.9654 45.1667 21.2077C45.8565 19.416 47.9443 17.2061 48.1166 15.3044C48.584 10.1447 51.2657 15.7275 51.8161 17.5966C54.6251 27.1373 53.0862 17.1679 54.8627 18.1932C56.167 18.946 58.225 24.8974 58.5622 20.9565C58.7279 19.0201 60.6582 17.6645 61.5121 16.3092C62.7251 14.3839 62.5765 10.8917 63.785 8.92996C64.0236 8.54257 68.1373 16.1993 68.1373 9.08697C68.6085 10.3107 69.5406 11.3999 69.7815 12.7295C70.1929 15.0002 70.3135 17.2088 70.3135 19.5435C70.3135 20.5198 70.9126 20.7567 71.4257 21.3019C72.1627 22.085 73.0306 25.1505 73.3843 24.0024C73.6725 23.0668 73.9563 22.296 74.6658 23.2174C75.559 24.3773 74.9405 24.2423 75.5363 23.4686C75.7767 23.1563 76.0923 22.6096 76.4067 22.7778C76.7544 22.9637 77.5228 23.9147 77.3739 23.657C76.961 22.942 78.4362 24.1038 78.4862 24.0966C78.879 24.0399 80.6625 29.5 81.5 29.5" stroke="url(#paint0_linear_902_305)" stroke-linecap="round"/>
<defs>
<linearGradient id="paint0_linear_902_305" x1="40.5" y1="30" x2="40.5" y2="4.00002" gradientUnits="userSpaceOnUse">
<stop stop-color="#CB2D53"/>
<stop offset="1" stop-color="#CB2D53" stop-opacity="0.52"/>
</linearGradient>
</defs>
</svg>
