<svg width="86" height="28" viewBox="0 0 86 28" fill="none" xmlns="http://www.w3.org/2000/svg">
<path d="M1 27C3.22442 27 6.36969 25.9084 7.06908 22.7295C7.56262 20.4862 8.39896 15.9469 8.39896 15.9469C8.39896 15.9469 8.15037 18.1403 8.49568 19.087C9.30943 21.3179 10.118 19.1108 10.5751 17.9565C11.5429 15.5126 11.6621 13.8823 13.4041 12.8382C14.2317 12.3421 15.0142 10.1706 15.6045 10.6087C16.6219 11.3637 17.0145 11.1272 17.9741 10.3261C18.7769 9.65589 19.6016 9.50258 20.1503 8.47343C20.4238 7.96022 21.8517 5.05799 21.8912 5.64734C22.1859 10.0494 23.7761 5.12849 24.5993 7.90821C24.895 8.90672 25.8083 9.3185 25.8083 10.3261C25.8083 12.9324 26.4457 11.1593 27.114 10.0435C27.7392 8.99957 30.0047 2.10507 30.3782 2.97826C30.906 4.21195 31.2346 3.51078 31.9016 2.69565C32.6266 1.80947 32.2128 3.88179 32.4335 4.3913C32.8391 5.32767 34.586 2.71807 35.0933 2.50725C35.2829 2.42842 35.7981 4.64208 35.9154 5.08213C36.1666 6.02451 36.6891 7.06673 36.6891 8.06522C36.6891 9.61451 37.3331 8.41063 37.7772 8.41063C38.021 8.41063 38.9915 13.6963 39.2763 14.2512C40.0712 15.7997 40.7306 10.4786 42.1295 10.0749C42.4495 9.98253 43.6236 8.67675 43.6287 8.69324C43.7701 9.15241 43.6233 10.5459 44.3299 10.5459C45.3263 10.5459 46.7162 8.38788 47.038 7.34299C47.2627 6.61347 47.375 9.03464 47.6667 9.79227C48.3565 11.584 50.4443 13.7939 50.6166 15.6957C51.084 20.8553 53.7657 15.2725 54.3161 13.4034C57.1251 3.86267 55.5862 13.8321 57.3627 12.8068C58.667 12.054 60.725 6.10263 61.0622 10.0435C61.2279 11.9799 63.1582 13.3355 64.0121 14.6908C65.225 16.6161 65.0765 20.1083 66.285 22.07C66.5236 22.4574 68.4611 12.2258 68.4611 19.3382C68.4611 20.6843 68.3278 24.2068 68.9931 25.1787C69.2484 25.5517 70.53 22.1917 70.6373 21.913C71.1085 20.6893 72.0406 19.6001 72.2815 18.2705C72.6929 15.9998 72.8135 13.7912 72.8135 11.4565C72.8135 10.4802 73.4126 10.2433 73.9257 9.69807C74.6627 8.91503 75.5306 5.84946 75.8843 6.99758C76.1724 7.93318 76.4563 8.70398 77.1658 7.78261C78.059 6.62269 77.4405 6.75772 78.0363 7.5314C78.2767 7.84366 78.5923 8.39036 78.9067 8.22222C79.2544 8.03633 80.0227 7.08529 79.8739 7.34299C79.461 8.05797 80.9362 6.89617 80.9862 6.90338C81.379 6.96006 80.6807 9.22705 81.5181 9.22705C83.2019 9.22705 85 2.83725 85 1" stroke="url(#paint0_linear_902_835)" stroke-linecap="round"/>
<defs>
<linearGradient id="paint0_linear_902_835" x1="43" y1="1" x2="43" y2="27" gradientUnits="userSpaceOnUse">
<stop stop-color="#69F3C1"/>
<stop offset="1" stop-color="#69F3C1" stop-opacity="0.52"/>
</linearGradient>
</defs>
</svg>
